<?xml version="1.0" standalone="no"?>
<!DOCTYPE svg PUBLIC "-//W3C//DTD SVG 20010904//EN"
 "http://www.w3.org/TR/2001/REC-SVG-20010904/DTD/svg10.dtd">
<svg version="1.0" xmlns="http://www.w3.org/2000/svg"
 width="512.000000pt" height="512.000000pt" viewBox="0 0 512.000000 512.000000"
 preserveAspectRatio="xMidYMid meet">
<metadata>
Created by potrace 1.11, written by Peter Selinger 2001-2013
</metadata>
<g transform="translate(0.000000,512.000000) scale(0.100000,-0.100000)"
fill="#000000" stroke="none">
<path d="M2365 5114 c-108 -9 -326 -46 -435 -73 -172 -44 -335 -105 -509 -192
-503 -249 -900 -646 -1150 -1150 -126 -252 -198 -480 -243 -764 -32 -201 -32
-549 0 -750 45 -284 117 -512 243 -764 249 -503 646 -900 1150 -1150 252 -126
480 -198 764 -243 201 -32 549 -32 750 0 284 45 512 117 764 243 504 250 901
647 1150 1150 126 252 198 480 243 764 32 201 32 549 0 750 -45 284 -117 512
-243 764 -249 503 -646 900 -1150 1150 -357 178 -685 258 -1084 265 -110 2
-222 2 -250 0z m-401 -570 c16 -10 28 -32 35 -62 6 -26 137 -807 291 -1737
155 -929 284 -1698 288 -1708 5 -11 105 324 277 925 206 720 275 948 292 966
27 27 72 29 102 5 15 -13 64 -147 174 -478 l154 -460 295 -3 295 -2 17 44 c30
77 79 131 153 168 60 29 77 33 148 32 96 -1 154 -24 219 -90 68 -67 90 -123
90 -224 0 -101 -22 -157 -90 -224 -67 -67 -123 -90 -224 -90 -74 -1 -92 3
-137 27 -66 34 -116 84 -148 147 l-25 50 -339 0 c-308 0 -341 2 -360 18 -15
12 -57 123 -144 385 l-122 368 -285 -998 c-218 -764 -290 -1003 -307 -1020
-47 -48 -115 -19 -132 55 -6 26 -137 808 -291 1737 -154 930 -282 1695 -283
1700 -2 6 -127 -487 -278 -1095 -223 -898 -278 -1109 -296 -1128 l-22 -22
-496 0 -495 0 0 80 0 80 449 0 449 0 314 1263 c255 1027 317 1266 335 1285 26
26 64 28 97 6z"/>
</g>
</svg>
