<svg width="21" height="26" viewBox="0 0 21 26" xmlns="http://www.w3.org/2000/svg"><title>Ω</title><path d="M11.908 23.205c1.653-.293 2.94-1.28 3.86-2.962.92-1.68 1.378-3.993 1.378-6.934v-2.076c0-2.73-.565-4.825-1.696-6.284-1.13-1.46-2.692-2.188-4.684-2.188-1.98 0-3.534.73-4.66 2.188C4.983 6.41 4.42 8.504 4.42 11.234v2.075c0 2.94.472 5.254 1.415 6.942.943 1.687 2.253 2.672 3.93 2.953V26H1.06v-2.707h4.114c-1.313-1.137-2.344-2.605-3.094-4.403-.75-1.8-1.125-3.66-1.125-5.58v-2.04c0-3.33.905-6.033 2.716-8.113 1.81-2.08 4.175-3.12 7.093-3.12s5.288 1.04 7.11 3.12S20.61 7.94 20.61 11.27v2.04c0 1.92-.376 3.78-1.126 5.58-.75 1.798-1.77 3.266-3.058 4.403h4.22V26h-8.738v-2.795z" fill="#000" fill-rule="evenodd"/></svg>